<?xml version="1.0" encoding="UTF-8"?>
<svg version="1.1" xmlns="http://www.w3.org/2000/svg" width="40" height="40">
<path d="M0 0 C3.44165321 0.35299007 5.06872538 1.04581692 8 3 C10.32387947 3.39387788 12.65793749 3.73486085 15 4 C15.3403125 5.36125 15.3403125 5.36125 15.6875 6.75 C16.68529948 10.16056564 16.68529948 10.16056564 19.55859375 11.53515625 C22.3900234 14.39376763 22.3792574 15.0806798 22.5234375 18.94921875 C22.49957158 20.86247018 22.44917645 22.77553806 22.375 24.6875 C22.36082031 25.66267578 22.34664062 26.63785156 22.33203125 27.64257812 C22.18223614 34.81776386 22.18223614 34.81776386 21 36 C18.20006403 36.10103255 15.42531356 36.13970088 12.625 36.1328125 C11.78533691 36.13376923 10.94567383 36.13472595 10.08056641 36.13571167 C8.30175705 36.13639348 6.52294523 36.13453917 4.74414062 36.13037109 C2.01166224 36.12502283 -0.72065176 36.13031605 -3.453125 36.13671875 C-5.1770837 36.13605797 -6.90104229 36.13477681 -8.625 36.1328125 C-9.44790527 36.13483673 -10.27081055 36.13686096 -11.11865234 36.13894653 C-16.88504946 36.11495054 -16.88504946 36.11495054 -18 35 C-18.36239123 31.5939463 -18.37159099 28.17272306 -18.4375 24.75 C-18.48326172 23.79480469 -18.52902344 22.83960937 -18.57617188 21.85546875 C-18.68791142 14.86931789 -18.68791142 14.86931789 -16.6640625 12.31176758 C-15.02734375 11.00390625 -15.02734375 11.00390625 -12 9 C-11.04452419 6.32891902 -11.04452419 6.32891902 -11 4 C-10.37351562 3.87882813 -9.74703125 3.75765625 -9.1015625 3.6328125 C-8.28429688 3.46523437 -7.46703125 3.29765625 -6.625 3.125 C-5.81289062 2.96257813 -5.00078125 2.80015625 -4.1640625 2.6328125 C-1.81326077 2.13341068 -1.81326077 2.13341068 0 0 Z M-9 6 C-9 10.29 -9 14.58 -9 19 C-9.99 19.495 -9.99 19.495 -11 20 C-7.04 22.97 -3.08 25.94 1 29 C4.37630274 27.31184863 7.18933101 25.54968586 10.25 23.375 C11.14203125 22.74335938 12.0340625 22.11171875 12.953125 21.4609375 C13.62859375 20.97882812 14.3040625 20.49671875 15 20 C14.34 19.67 13.68 19.34 13 19 C13 14.71 13 10.42 13 6 C5.74 6 -1.52 6 -9 6 Z " fill="#FFFFFF" transform="translate(18,2)"/>
<path d="M0 0 C1 1 1 1 1.09765625 3.06640625 C1.08605469 3.89011719 1.07445312 4.71382812 1.0625 5.5625 C1.05347656 6.38878906 1.04445313 7.21507812 1.03515625 8.06640625 C1.02355469 8.70449219 1.01195312 9.34257812 1 10 C-2.75350671 12.11236308 -4.78812136 12.09875095 -9 11 C-11 9 -11 9 -11.25 5.5625 C-11 2 -11 2 -9 -1 C-5.21801096 -2.26066301 -3.63636792 -1.42292658 0 0 Z M-2 2 C-1 6 -1 6 -1 6 Z M-6 3 C-6.33 4.32 -6.66 5.64 -7 7 C-6.34 7 -5.68 7 -5 7 C-4.67 6.01 -4.34 5.02 -4 4 C-4.66 3.67 -5.32 3.34 -6 3 Z M-5 8 C-5.33 8.66 -5.66 9.32 -6 10 C-5.34 10 -4.68 10 -4 10 C-4.33 9.34 -4.66 8.68 -5 8 Z " fill="#FFFFFF" transform="translate(25,13)"/>
</svg>
