<?xml version="1.0" encoding="UTF-8"?>
<svg version="1.1" xmlns="http://www.w3.org/2000/svg" width="40" height="40">
<path d="M0 0 C3.65367419 1.79849406 6.23614252 4.03568692 9 7 C10.2684375 8.299375 10.2684375 8.299375 11.5625 9.625 C14.09393555 15.56837041 14.04290451 22.87128646 12 29 C11.34 29 10.68 29 10 29 C9.7525 29.763125 9.505 30.52625 9.25 31.3125 C7.87869328 34.26080945 6.7648921 35.35834532 4 37 C3.34 37 2.68 37 2 37 C2 37.66 2 38.32 2 39 C0.35 39 -1.3 39 -3 39 C-3.33 35.04 -3.66 31.08 -4 27 C-1.69 26.34 0.62 25.68 3 25 C3.10251672 19.87416389 3.03590199 15.05002222 2 10 C1.01 10.33 0.02 10.66 -1 11 C-2.99820728 11.09435979 -4.99957203 11.12990301 -7 11.125 C-8.051875 11.12757812 -9.10375 11.13015625 -10.1875 11.1328125 C-13 11 -13 11 -16 10 C-16.16759984 12.1249266 -16.33405201 14.24994376 -16.5 16.375 C-16.5928125 17.55835937 -16.685625 18.74171875 -16.78125 19.9609375 C-16.90195454 21.63786843 -17 23.31873056 -17 25 C-14.69 25.66 -12.38 26.32 -10 27 C-10.165 27.86625 -10.33 28.7325 -10.5 29.625 C-10.97218548 32.81225199 -11.07655118 35.78485027 -11 39 C-11.99 39.495 -11.99 39.495 -13 40 C-19.3104757 37.27783401 -23.96612268 33.24465711 -27 27 C-28.18697982 21.1261456 -28.3415128 15.69064783 -25.625 10.2421875 C-23.90428898 7.91461857 -22.11255988 5.97374691 -20 4 C-19.154375 3.154375 -18.30875 2.30875 -17.4375 1.4375 C-11.68790978 -0.96687409 -6.11245595 -1.01988347 0 0 Z " fill="#FEFEFE" transform="translate(27,0)"/>
</svg>
