<?xml version="1.0" encoding="UTF-8"?>
<svg version="1.1" xmlns="http://www.w3.org/2000/svg" width="40" height="40">
<path d="M0 0 C0.65073486 0.00091644 1.30146973 0.00183289 1.97192383 0.0027771 C3.34366173 0.00880179 4.71538717 0.02451425 6.08691406 0.04931641 C8.18083431 0.08582129 10.27298221 0.09033558 12.3671875 0.08984375 C23.50666117 0.17183022 23.50666117 0.17183022 27.1875 2.4609375 C27.23686883 7.26642347 27.27320443 12.07176244 27.29736328 16.87744141 C27.30743254 18.51288422 27.32108881 20.14830899 27.33837891 21.78369141 C27.36258705 24.1318812 27.37397357 26.47983338 27.3828125 28.828125 C27.39313507 29.56151093 27.40345764 30.29489685 27.41409302 31.05050659 C27.41449368 32.85556447 27.30962755 34.6600158 27.1875 36.4609375 C24.72316466 38.92527284 23.34399259 38.69736105 19.98083496 38.71318054 C18.92297791 38.70240227 18.92297791 38.70240227 17.84375 38.69140625 C17.11885376 38.69094803 16.39395752 38.69048981 15.64709473 38.6900177 C14.11383427 38.68699549 12.58057688 38.67911008 11.04736328 38.66674805 C8.69682978 38.64850989 6.34669057 38.64623824 3.99609375 38.64648438 C2.50780908 38.64156841 1.0195271 38.63573975 -0.46875 38.62890625 C-1.17398804 38.62779343 -1.87922607 38.6266806 -2.60583496 38.62553406 C-7.58034928 38.57701286 -7.58034928 38.57701286 -9.8125 37.4609375 C-11.50895913 32.37156012 -11.0771986 26.96378568 -11.10766602 21.63696289 C-11.11920816 20.22963423 -11.13969564 18.82235011 -11.16918945 17.4152832 C-11.21185657 15.37941826 -11.22802956 13.34485017 -11.23828125 11.30859375 C-11.25286377 10.09179932 -11.26744629 8.87500488 -11.2824707 7.62133789 C-10.8125 4.4609375 -10.8125 4.4609375 -9.21166992 2.06176758 C-5.99714066 -0.08310556 -3.84866537 -0.02612912 0 0 Z M-6.8125 5.4609375 C-6.90017112 7.53355826 -6.91945873 9.60914044 -6.91015625 11.68359375 C-6.90765869 12.81804932 -6.90516113 13.95250488 -6.90258789 15.12133789 C-6.89348389 16.57403076 -6.88437988 18.02672363 -6.875 19.5234375 C-6.854375 24.1228125 -6.83375 28.7221875 -6.8125 33.4609375 C2.7575 33.4609375 12.3275 33.4609375 22.1875 33.4609375 C22.1875 23.8909375 22.1875 14.3209375 22.1875 4.4609375 C17.588125 4.4403125 12.98875 4.4196875 8.25 4.3984375 C6.07096069 4.38478149 6.07096069 4.38478149 3.84790039 4.37084961 C2.71344482 4.36835205 1.57898926 4.36585449 0.41015625 4.36328125 C-0.75765381 4.35804443 -1.92546387 4.35280762 -3.12866211 4.34741211 C-5.73141551 4.15432255 -5.73141551 4.15432255 -6.8125 5.4609375 Z " fill="#FEFEFE" transform="translate(11.8125,0.5390625)"/>
<path d="M0 0 C2.43375 -0.020625 4.8675 -0.04125 7.375 -0.0625 C8.13989746 -0.071604 8.90479492 -0.08070801 9.69287109 -0.09008789 C14.77777778 -0.11111111 14.77777778 -0.11111111 17 1 C18.18681726 4.56045177 18.09689832 7.43808337 18.0625 11.1875 C18.05347656 12.45980469 18.04445313 13.73210938 18.03515625 15.04296875 C18.02355469 16.01878906 18.01195313 16.99460937 18 18 C15.69 18 13.38 18 11 18 C11 14.37 11 10.74 11 7 C10.01 7.33 9.02 7.66 8 8 C7.67 11.3 7.34 14.6 7 18 C4.69 18 2.38 18 0 18 C0 12.06 0 6.12 0 0 Z " fill="#FEFEFE" transform="translate(15,15)"/>
<path d="M0 0 C2.64 0 5.28 0 8 0 C8 5.94 8 11.88 8 18 C5.36 18 2.72 18 0 18 C0 12.06 0 6.12 0 0 Z " fill="#FEFEFE" transform="translate(6,15)"/>
<path d="M0 0 C0.598125 0.226875 1.19625 0.45375 1.8125 0.6875 C2.4375 3.0625 2.4375 3.0625 2.8125 5.6875 C2.1525 6.3475 1.4925 7.0075 0.8125 7.6875 C-1.8125 7.3125 -1.8125 7.3125 -4.1875 6.6875 C-4.875 4.875 -4.875 4.875 -5.1875 2.6875 C-3.58493056 0.24147296 -2.95482043 -0.4221172 0 0 Z " fill="#FFFFFF" transform="translate(11.1875,6.3125)"/>
</svg>
