<?xml version="1.0" encoding="UTF-8"?>
<svg version="1.1" xmlns="http://www.w3.org/2000/svg" width="40" height="40">
<path d="M0 0 C2.4375 1.75 2.4375 1.75 4.4375 4.75 C4.12231693 7.20842792 3.59408773 9.34781678 2.6953125 11.65625 C2.1998475 13.85207869 2.1998475 13.85207869 3.73046875 15.78515625 C4.35566406 16.45417969 4.98085937 17.12320312 5.625 17.8125 C6.23730469 18.48410156 6.84960938 19.15570312 7.48046875 19.84765625 C9.37750729 21.69168374 11.22688844 23.29613306 13.4375 24.75 C15.43177359 24.56446109 15.43177359 24.56446109 17.4375 23.75 C19.875 22.9375 19.875 22.9375 22.4375 22.75 C25.19929284 24.44473651 26.93573097 25.83500942 28.5 28.6875 C28.4375 30.75 28.4375 30.75 27 33.5 C24.4375 35.75 24.4375 35.75 20.6875 36.3125 C11.3726848 35.62505976 4.63252943 29.23461344 -1.5625 22.75 C-6.51645822 16.39492229 -9.53931856 10.95870335 -8.5625 2.75 C-6.29780787 -0.59311695 -3.78965814 -1.84861373 0 0 Z " fill="#FFFFFF" transform="translate(8.5625,4.25)"/>
<path d="M0 0 C6.81954119 -0.40917247 11.44106627 -0.0408611 16.8515625 4.58203125 C20.92416527 8.42837832 23.83979379 11.49326416 24.10546875 17.30859375 C24.12290698 19.5441744 24.08759502 21.76632698 24 24 C22.35 23.67 20.7 23.34 19 23 C18.91363281 22.41992188 18.82726562 21.83984375 18.73828125 21.2421875 C17.56374197 14.71218012 15.73200138 10.61240096 10.125 6.6875 C7.12659482 5.71742774 4.12315949 5.36036456 1 5 C0.67 3.35 0.34 1.7 0 0 Z " fill="#FFFFFF" transform="translate(16,0)"/>
<path d="M0 0 C4.87773605 0.45374289 7.52177888 1.52177888 11 5 C14.13043478 10.00869565 14.13043478 10.00869565 13.6875 13.375 C13.460625 13.91125 13.23375 14.4475 13 15 C11.68 15 10.36 15 9 15 C8.5875 14.071875 8.175 13.14375 7.75 12.1875 C5.43895513 7.97809685 3.50298268 6.50099423 -1 5 C-0.67 3.35 -0.34 1.7 0 0 Z " fill="#FFFFFF" transform="translate(19,7)"/>
</svg>
