<svg xmlns="http://www.w3.org/2000/svg" viewBox="0 0 64 16">
  <!-- Frame 1 - pixel character standing -->
  <g transform="translate(0,0)">
    <!-- Head -->
    <rect x="6" y="1" width="4" height="4" fill="#ffffff"/>
    <!-- Body -->
    <rect x="6" y="5" width="4" height="5" fill="#ffffff"/>
    <!-- Legs -->
    <rect x="6" y="10" width="2" height="5" fill="#ffffff"/>
    <rect x="8" y="10" width="2" height="5" fill="#ffffff"/>
    <!-- Arms -->
    <rect x="4" y="6" width="2" height="3" fill="#ffffff"/>
    <rect x="10" y="6" width="2" height="3" fill="#ffffff"/>
  </g>
  
  <!-- Frame 2 - pixel character walking -->
  <g transform="translate(16,0)">
    <!-- Head -->
    <rect x="6" y="1" width="4" height="4" fill="#ffffff"/>
    <!-- Body -->
    <rect x="6" y="5" width="4" height="5" fill="#ffffff"/>
    <!-- Legs -->
    <rect x="5" y="10" width="2" height="5" fill="#ffffff"/>
    <rect x="9" y="10" width="2" height="4" fill="#ffffff"/>
    <!-- Arms -->
    <rect x="3" y="6" width="3" height="2" fill="#ffffff"/>
    <rect x="10" y="7" width="3" height="2" fill="#ffffff"/>
  </g>
  
  <!-- Frame 3 - pixel character walking alternate -->
  <g transform="translate(32,0)">
    <!-- Head -->
    <rect x="6" y="1" width="4" height="4" fill="#ffffff"/>
    <!-- Body -->
    <rect x="6" y="5" width="4" height="5" fill="#ffffff"/>
    <!-- Legs -->
    <rect x="5" y="10" width="2" height="4" fill="#ffffff"/>
    <rect x="9" y="10" width="2" height="5" fill="#ffffff"/>
    <!-- Arms -->
    <rect x="3" y="7" width="3" height="2" fill="#ffffff"/>
    <rect x="10" y="6" width="3" height="2" fill="#ffffff"/>
  </g>
  
  <!-- Frame 4 - pixel character jumping -->
  <g transform="translate(48,0)">
    <!-- Head -->
    <rect x="6" y="0" width="4" height="4" fill="#ffffff"/>
    <!-- Body -->
    <rect x="6" y="4" width="4" height="5" fill="#ffffff"/>
    <!-- Legs -->
    <rect x="5" y="9" width="2" height="3" fill="#ffffff"/>
    <rect x="9" y="9" width="2" height="3" fill="#ffffff"/>
    <!-- Arms -->
    <rect x="2" y="5" width="4" height="2" fill="#ffffff"/>
    <rect x="10" y="5" width="4" height="2" fill="#ffffff"/>
  </g>
</svg>