<svg xmlns="http://www.w3.org/2000/svg" viewBox="0 0 400 400">
  <!-- Background -->
  <rect x="0" y="0" width="400" height="400" fill="#121212"/>
  
  <!-- Horizontal platform -->
  <rect x="0" y="100" width="150" height="4" fill="#ffffff"/>
  <rect x="0" y="104" width="150" height="2" fill="#888888"/>
  
  <!-- Vertical wall left -->
  <rect x="20" y="0" width="4" height="100" fill="#ffffff"/>
  <rect x="24" y="0" width="2" height="100" fill="#888888"/>
  
  <!-- Platform with details -->
  <rect x="150" y="200" width="100" height="4" fill="#ffffff"/>
  <rect x="150" y="204" width="100" height="2" fill="#888888"/>
  <rect x="160" y="196" width="10" height="4" fill="#ffffff"/>
  <rect x="180" y="196" width="10" height="4" fill="#ffffff"/>
  <rect x="200" y="196" width="10" height="4" fill="#ffffff"/>
  <rect x="220" y="196" width="10" height="4" fill="#ffffff"/>
  
  <!-- Upper platform -->
  <rect x="300" y="50" width="100" height="4" fill="#ffffff"/>
  <rect x="300" y="54" width="100" height="2" fill="#888888"/>
  
  <!-- Lower platform -->
  <rect x="250" y="300" width="150" height="4" fill="#ffffff"/>
  <rect x="250" y="304" width="150" height="2" fill="#888888"/>
  
  <!-- Ladder structure -->
  <rect x="350" y="54" width="4" height="246" fill="#ffffff"/>
  <rect x="350" y="80" width="20" height="2" fill="#ffffff"/>
  <rect x="350" y="100" width="20" height="2" fill="#ffffff"/>
  <rect x="350" y="120" width="20" height="2" fill="#ffffff"/>
  <rect x="350" y="140" width="20" height="2" fill="#ffffff"/>
  <rect x="350" y="160" width="20" height="2" fill="#ffffff"/>
  <rect x="350" y="180" width="20" height="2" fill="#ffffff"/>
  <rect x="350" y="200" width="20" height="2" fill="#ffffff"/>
  <rect x="350" y="220" width="20" height="2" fill="#ffffff"/>
  <rect x="350" y="240" width="20" height="2" fill="#ffffff"/>
  <rect x="350" y="260" width="20" height="2" fill="#ffffff"/>
  <rect x="350" y="280" width="20" height="2" fill="#ffffff"/>
  
  <!-- Ceiling details -->
  <rect x="40" y="0" width="10" height="4" fill="#ffffff"/>
  <rect x="60" y="0" width="10" height="4" fill="#ffffff"/>
  <rect x="80" y="0" width="10" height="4" fill="#ffffff"/>
  <rect x="100" y="0" width="10" height="4" fill="#ffffff"/>
  <rect x="120" y="0" width="10" height="4" fill="#ffffff"/>
  <rect x="140" y="0" width="10" height="4" fill="#ffffff"/>
  <rect x="160" y="0" width="10" height="4" fill="#ffffff"/>
  
  <!-- Wall details -->
  <rect x="150" y="100" width="4" height="100" fill="#ffffff"/>
  <rect x="154" y="100" width="2" height="100" fill="#888888"/>
  
  <!-- Small platform elements -->
  <rect x="200" y="150" width="50" height="2" fill="#ffffff"/>
  <rect x="200" y="152" width="50" height="1" fill="#888888"/>
  
  <!-- Small platform elements -->
  <rect x="275" y="100" width="50" height="2" fill="#ffffff"/>
  <rect x="275" y="102" width="50" height="1" fill="#888888"/>
  
  <!-- Small objects -->
  <rect x="100" y="96" width="4" height="4" fill="#ffffff"/>
  <rect x="180" y="196" width="4" height="4" fill="#ffffff"/>
  <rect x="300" y="296" width="4" height="4" fill="#ffffff"/>
  <rect x="50" y="250" width="6" height="6" fill="#ffffff"/>
  <rect x="220" y="350" width="8" height="8" fill="#ffffff"/>
  
  <!-- Small dots for stars/particles -->
  <rect x="30" y="30" width="1" height="1" fill="#ffffff"/>
  <rect x="80" y="50" width="1" height="1" fill="#ffffff"/>
  <rect x="120" y="40" width="1" height="1" fill="#ffffff"/>
  <rect x="200" y="20" width="1" height="1" fill="#ffffff"/>
  <rect x="240" y="60" width="1" height="1" fill="#ffffff"/>
  <rect x="280" y="25" width="1" height="1" fill="#ffffff"/>
  <rect x="330" y="45" width="1" height="1" fill="#ffffff"/>
  <rect x="380" y="30" width="1" height="1" fill="#ffffff"/>
  <rect x="50" y="130" width="1" height="1" fill="#ffffff"/>
  <rect x="90" y="170" width="1" height="1" fill="#ffffff"/>
  <rect x="25" y="220" width="1" height="1" fill="#ffffff"/>
  <rect x="200" y="250" width="1" height="1" fill="#ffffff"/>
  <rect x="300" y="180" width="1" height="1" fill="#ffffff"/>
  <rect x="170" y="320" width="1" height="1" fill="#ffffff"/>
  <rect x="230" y="380" width="1" height="1" fill="#ffffff"/>
  <rect x="370" y="350" width="1" height="1" fill="#ffffff"/>
</svg>